<svg width="31" height="39" viewBox="0 0 31 39" fill="none" xmlns="http://www.w3.org/2000/svg">
<path id="Vector" d="M27.033 15.8952H25V10.1952C25 10.1952 25 0.69519 15.5 0.69519C5.99999 0.69519 5.99999 10.1952 5.99999 10.1952V15.8952H3.96699C2.99444 15.8952 2.06172 16.2815 1.37403 16.9692C0.686332 17.6569 0.299988 18.5896 0.299988 19.5622V35.0472C0.30501 36.0164 0.69357 36.9443 1.38072 37.6279C2.06787 38.3115 2.99772 38.6952 3.96699 38.6952H27.033C28.0055 38.6952 28.9383 38.3088 29.6259 37.6211C30.3136 36.9335 30.7 36.0007 30.7 35.0282V19.5622C30.7 18.5896 30.3136 17.6569 29.6259 16.9692C28.9383 16.2815 28.0055 15.8952 27.033 15.8952ZM9.79999 11.1452C9.79999 8.29519 9.79999 4.49519 15.5 4.49519C21.2 4.49519 21.2 8.29519 21.2 11.1452V15.8952H9.79999V11.1452ZM15.5 31.0952C14.7484 31.0952 14.0137 30.8723 13.3888 30.4548C12.7639 30.0372 12.2769 29.4437 11.9892 28.7494C11.7016 28.055 11.6264 27.291 11.773 26.5538C11.9196 25.8167 12.2815 25.1396 12.813 24.6082C13.3444 24.0767 14.0215 23.7148 14.7586 23.5682C15.4958 23.4216 16.2598 23.4968 16.9542 23.7844C17.6485 24.0721 18.242 24.5591 18.6596 25.184C19.0771 25.8089 19.3 26.5436 19.3 27.2952C19.3 28.303 18.8996 29.2696 18.187 29.9822C17.4744 30.6948 16.5078 31.0952 15.5 31.0952Z" fill="url(#paint0_linear_1_327)"/>
<defs>
<linearGradient id="paint0_linear_1_327" x1="15.5" y1="0.69519" x2="15.5" y2="38.6952" gradientUnits="userSpaceOnUse">
<stop/>
<stop offset="1" stop-color="#54C6AA" stop-opacity="0.9"/>
</linearGradient>
</defs>
</svg>
