<svg width="31" height="36" viewBox="0 0 31 36" fill="none" xmlns="http://www.w3.org/2000/svg">
<path id="Vector" d="M15.5 0.19519C12.4344 0.19519 9.43763 1.22155 6.88867 3.14447C4.33971 5.0674 2.35303 7.80052 1.17987 10.9982C0.00671591 14.1959 -0.300236 17.7146 0.297835 21.1093C0.895906 24.5039 2.37214 27.6221 4.53985 30.0696C6.70756 32.517 9.4694 34.1837 12.4761 34.8589C15.4828 35.5342 18.5993 35.1876 21.4316 33.8631C24.2638 32.5385 26.6846 30.2955 28.3878 27.4177C30.0909 24.5398 31 21.1564 31 17.6952C30.9921 13.0566 29.3566 8.61061 26.4515 5.33065C23.5463 2.05069 19.6084 0.204085 15.5 0.19519ZM17.2885 25.7721H16.6923V27.1183C16.6923 27.4753 16.5667 27.8177 16.3431 28.0701C16.1195 28.3226 15.8162 28.4644 15.5 28.4644C15.1838 28.4644 14.8805 28.3226 14.6569 28.0701C14.4333 27.8177 14.3077 27.4753 14.3077 27.1183V25.7721H11.9231C11.6069 25.7721 11.3036 25.6303 11.08 25.3778C10.8564 25.1254 10.7308 24.783 10.7308 24.426C10.7308 24.0689 10.8564 23.7265 11.08 23.4741C11.3036 23.2216 11.6069 23.0798 11.9231 23.0798H17.2885C17.7628 23.0798 18.2177 22.8671 18.5531 22.4884C18.8885 22.1097 19.0769 21.5961 19.0769 21.0606C19.0769 20.525 18.8885 20.0114 18.5531 19.6328C18.2177 19.2541 17.7628 19.0413 17.2885 19.0413H13.7115C12.6048 19.0413 11.5433 18.5449 10.7607 17.6614C9.97813 16.7778 9.53847 15.5794 9.53847 14.3298C9.53847 13.0802 9.97813 11.8818 10.7607 10.9982C11.5433 10.1147 12.6048 9.61827 13.7115 9.61827H14.3077V8.27211C14.3077 7.91509 14.4333 7.57269 14.6569 7.32024C14.8805 7.06778 15.1838 6.92596 15.5 6.92596C15.8162 6.92596 16.1195 7.06778 16.3431 7.32024C16.5667 7.57269 16.6923 7.91509 16.6923 8.27211V9.61827H19.0769C19.3931 9.61827 19.6964 9.76009 19.92 10.0125C20.1436 10.265 20.2692 10.6074 20.2692 10.9644C20.2692 11.3214 20.1436 11.6638 19.92 11.9163C19.6964 12.1687 19.3931 12.3106 19.0769 12.3106H13.7115C13.2372 12.3106 12.7823 12.5233 12.4469 12.902C12.1115 13.2807 11.9231 13.7943 11.9231 14.3298C11.9231 14.8653 12.1115 15.3789 12.4469 15.7576C12.7823 16.1363 13.2372 16.349 13.7115 16.349H17.2885C18.3952 16.349 19.4567 16.8454 20.2393 17.729C21.0219 18.6126 21.4615 19.811 21.4615 21.0606C21.4615 22.3101 21.0219 23.5085 20.2393 24.3921C19.4567 25.2757 18.3952 25.7721 17.2885 25.7721Z" fill="url(#paint0_linear_1_344)"/>
<defs>
<linearGradient id="paint0_linear_1_344" x1="15.5" y1="0.19519" x2="15.5" y2="35.1952" gradientUnits="userSpaceOnUse">
<stop/>
<stop offset="1" stop-color="#54C6AA" stop-opacity="0.9"/>
</linearGradient>
</defs>
</svg>
