<svg width="28" height="35" viewBox="0 0 28 35" fill="none" xmlns="http://www.w3.org/2000/svg">
<g id="l">
<g id="T">
<path id="Vector" d="M11.4296 33L15.7941 26.7532L15.2591 13.9595L19.5045 13.7865L19.2883 8.64292L1.00012 9.34721L4.42286 14.4785L10.6582 14.2384L11.4296 33Z" fill="#3A87BE" stroke="#93ADCE" stroke-opacity="0.1" stroke-width="0.882567" stroke-miterlimit="10"/>
<path id="Vector_2" d="M27.2936 8.76659C27.3633 8.96958 27.2332 8.34825 27.1965 8.14703C25.978 1.64604 19.5595 1 19.5595 1L7.33073 1.20123L4.22498 6.88319L23.0977 6.48604C23.0977 6.48604 26.6945 7.01204 27.2936 8.76659Z" fill="#9DC3DF" stroke="#93ADCE" stroke-opacity="0.1" stroke-width="0.882567" stroke-miterlimit="10"/>
<path id="Vector_3" d="M27.3009 10.9978C27.3009 10.9978 28.2061 19.068 20.4207 20.7395L17.6246 20.9602L17.1775 15.783L19.9717 15.5624C19.9717 15.5624 24.8713 12.9024 21.1884 8.6219L22.9254 8.48422C22.9254 8.48422 25.6977 8.6678 27.3009 10.9978Z" fill="#9DC3DF" stroke="#93ADCE" stroke-opacity="0.1" stroke-width="0.882567" stroke-miterlimit="10"/>
</g>
</g>
</svg>
